<svg viewBox="0 0 54 54" fill="none" xmlns="http://www.w3.org/2000/svg">
<path fill-rule="evenodd" clip-rule="evenodd" d="M27 9C25.7828 9 24.6735 9.65925 22.455 10.98L15.795 14.9333C13.5787 16.2518 12.4673 16.9132 11.8575 17.9978C11.2478 19.0823 11.25 20.4053 11.25 23.0423V30.9578C11.25 33.5947 11.25 34.9132 11.8575 36C12.4673 37.0868 13.5787 37.746 15.795 39.0645L22.455 43.0223C24.6735 44.3408 25.7828 45 27 45C28.2173 45 29.3265 44.3408 31.545 43.02L38.205 39.0645C40.4212 37.746 41.5327 37.0845 42.1425 36C42.7522 34.9155 42.75 33.5947 42.75 30.9578V23.04C42.75 20.4075 42.75 19.0868 42.1425 18C41.5327 16.9132 40.4212 16.254 38.205 14.9355L31.545 10.9778C29.331 9.65925 28.2195 9 27 9ZM36.864 34.074C37.2371 33.8395 37.5037 33.4683 37.6068 33.0398C37.7099 32.6113 37.6412 32.1595 37.4155 31.781C37.1898 31.4025 36.8249 31.1272 36.399 31.0142C35.973 30.9011 35.5197 30.9592 35.136 31.176L26.136 36.54C25.7629 36.7745 25.4963 37.1457 25.3932 37.5742C25.2901 38.0027 25.3588 38.4545 25.5845 38.833C25.8102 39.2115 26.1751 39.4868 26.601 39.5998C27.027 39.7129 27.4803 39.6548 27.864 39.438L36.864 34.074Z" fill="#00eaff"/>
<path opacity="0.5" d="M42.6848 20.07C42.6128 19.2105 42.462 18.5737 42.1403 18C41.9129 17.6059 41.6208 17.253 41.2763 16.956L48.5662 12.096C48.7504 11.9654 48.9589 11.8731 49.1794 11.8246C49.3999 11.776 49.6279 11.7722 49.8499 11.8133C50.0719 11.8545 50.2833 11.9398 50.4718 12.0641C50.6602 12.1885 50.8218 12.3494 50.9469 12.5373C51.0721 12.7252 51.1582 12.9363 51.2003 13.1582C51.2423 13.38 51.2395 13.608 51.1918 13.8287C51.1442 14.0494 51.0527 14.2582 50.9229 14.4429C50.7931 14.6277 50.6275 14.7844 50.436 14.904L42.6848 20.07ZM11.3153 33.93C11.3873 34.7895 11.538 35.4263 11.8598 36C12.0758 36.387 12.3548 36.72 12.726 37.044L5.436 41.904C5.25169 42.0298 5.04425 42.1178 4.82569 42.163C4.60713 42.2081 4.38179 42.2094 4.16272 42.1668C3.94365 42.1243 3.7352 42.0387 3.54943 41.915C3.36366 41.7913 3.20427 41.632 3.08048 41.4463C2.95669 41.2607 2.87096 41.0523 2.82825 40.8332C2.78555 40.6142 2.78671 40.3888 2.83168 40.1703C2.87665 39.9517 2.96453 39.7442 3.09023 39.5598C3.21594 39.3754 3.37697 39.2177 3.564 39.096L11.3153 33.93ZM12.726 16.956C12.3798 17.2526 12.0862 17.6056 11.8575 18C11.5358 18.5737 11.385 19.2105 11.313 20.07L3.564 14.904C3.19702 14.6535 2.94366 14.2683 2.85892 13.8321C2.77417 13.396 2.86488 12.9439 3.11136 12.5742C3.35783 12.2045 3.74018 11.9469 4.1754 11.8574C4.61063 11.7679 5.0636 11.8536 5.436 12.096L12.726 16.956Z" fill="#00eaff"/>
</svg>
